<?xml version="1.0" standalone="no"?>
<!DOCTYPE svg PUBLIC "-//W3C//DTD SVG 20010904//EN"
 "http://www.w3.org/TR/2001/REC-SVG-20010904/DTD/svg10.dtd">
<svg version="1.0" xmlns="http://www.w3.org/2000/svg"
 width="84.000000pt" height="84.000000pt" viewBox="0 0 84.000000 84.000000"
 preserveAspectRatio="xMidYMid meet">
<metadata>
Created by potrace 1.14, written by Peter Selinger 2001-2017
</metadata>
<g transform="translate(0.000000,84.000000) scale(0.100000,-0.100000)"
fill="#000000" stroke="none">
<path d="M255 813 c-10 -3 -52 -27 -91 -54 -49 -33 -73 -56 -76 -73 -4 -22 1
-78 16 -171 2 -16 5 -37 5 -46 1 -9 15 -33 31 -54 26 -32 30 -46 30 -96 l0
-59 -44 0 -44 0 -37 -110 c-20 -60 -34 -113 -32 -117 6 -10 803 -11 812 -2 3
4 -10 57 -30 118 l-36 111 -55 0 -54 0 0 79 c0 81 -12 111 -46 111 -9 0 -14
10 -14 28 -1 42 -16 62 -145 193 -115 116 -153 150 -165 148 -3 -1 -14 -4 -25
-6z m57 -56 c195 -195 238 -244 242 -275 l3 -32 -112 0 c-106 0 -114 1 -128
23 -11 16 -18 19 -27 11 -9 -9 1 -36 39 -113 58 -115 62 -138 26 -147 -32 -8
-47 5 -86 73 -17 30 -49 75 -70 99 -59 68 -55 55 -75 236 l-6 57 68 45 c38 25
77 45 86 46 9 0 27 -10 40 -23z m300 -346 c4 0 7 -62 7 -136 l0 -135 -205 0
c-174 0 -204 2 -205 15 -1 20 -1 153 0 163 1 4 19 -21 41 -56 23 -35 51 -67
65 -72 32 -12 69 1 89 33 18 27 13 55 -27 133 -14 29 -24 53 -22 55 3 4 238 4
257 0z m-442 -228 c0 -36 -3 -43 -19 -43 -11 0 -22 -4 -25 -8 -15 -25 21 -29
289 -28 242 1 280 3 280 16 0 8 -10 16 -23 18 -20 3 -23 8 -20 45 3 42 3 42
42 42 l39 0 28 -82 28 -83 -369 0 -369 0 25 73 c13 39 26 77 28 83 2 6 18 11
35 11 30 0 31 -2 31 -44z"/>
</g>
</svg>
