<?xml version="1.0" standalone="no"?>
<!DOCTYPE svg PUBLIC "-//W3C//DTD SVG 20010904//EN"
 "http://www.w3.org/TR/2001/REC-SVG-20010904/DTD/svg10.dtd">
<svg version="1.0" xmlns="http://www.w3.org/2000/svg"
 width="84.000000pt" height="84.000000pt" viewBox="0 0 84.000000 84.000000"
 preserveAspectRatio="xMidYMid meet">

<g transform="translate(0.000000,84.000000) scale(0.100000,-0.100000)"
fill="#000000" stroke="none">
<path d="M255 812 c-32 -7 -162 -99 -167 -119 -3 -10 1 -64 8 -118 7 -55 13
-105 14 -111 0 -6 14 -28 30 -49 26 -32 30 -46 30 -96 l0 -59 -44 0 -44 0 -36
-108 c-20 -59 -36 -110 -36 -115 0 -4 184 -7 410 -7 226 0 410 3 410 7 0 5
-16 56 -36 115 l-36 108 -54 0 -54 0 0 79 c0 81 -12 111 -46 111 -8 0 -14 10
-14 25 0 15 -6 38 -14 53 -17 32 -264 277 -286 284 -8 2 -24 2 -35 0z m164
-164 c113 -115 131 -137 131 -165 l0 -33 -109 0 c-101 0 -110 1 -124 23 -11
16 -18 19 -27 11 -8 -8 2 -38 42 -118 56 -112 57 -137 10 -144 -22 -3 -28 4
-93 103 -21 33 -54 79 -73 101 -29 36 -35 53 -45 131 -17 135 -19 127 56 178
37 25 75 45 85 45 9 0 76 -60 147 -132z m185 -234 c14 -5 16 -27 16 -140 l0
-134 -205 0 -205 0 1 93 c0 75 2 89 12 73 7 -10 24 -38 39 -62 33 -53 68 -70
106 -52 15 7 33 26 40 41 13 26 11 34 -22 104 -20 41 -36 77 -36 79 0 7 237 5
254 -2z m-434 -229 c0 -38 -3 -45 -19 -45 -25 0 -38 -20 -20 -31 8 -5 138 -8
289 -6 237 2 275 4 275 17 0 8 -10 16 -22 18 -20 3 -23 9 -23 48 l0 45 42 -3
41 -3 28 -82 28 -83 -369 0 -369 0 25 73 c13 39 26 78 29 85 2 6 18 12 35 12
29 0 30 -2 30 -45z"/>
</g>
</svg>
